<?xml version="1.0" encoding="UTF-8" standalone="no"?>
<svg
   xmlns:dc="http://purl.org/dc/elements/1.1/"
   xmlns:cc="http://creativecommons.org/ns#"
   xmlns:rdf="http://www.w3.org/1999/02/22-rdf-syntax-ns#"
   xmlns:svg="http://www.w3.org/2000/svg"
   xmlns="http://www.w3.org/2000/svg"
   xmlns:sodipodi="http://sodipodi.sourceforge.net/DTD/sodipodi-0.dtd"
   xmlns:inkscape="http://www.inkscape.org/namespaces/inkscape"
   width="519.25pt"
   height="144.5pt"
   viewBox="0 0 519.25 144.5"
   version="1.1"
   id="svg2"
   inkscape:version="0.91 r13725"
   sodipodi:docname="mame.svg">
  <metadata
     id="metadata73">
    <rdf:RDF>
      <cc:Work
         rdf:about="">
        <dc:format>image/svg+xml</dc:format>
        <dc:type
           rdf:resource="http://purl.org/dc/dcmitype/StillImage" />
        <dc:title></dc:title>
      </cc:Work>
    </rdf:RDF>
  </metadata>
  <defs
     id="defs71" />
  <sodipodi:namedview
     pagecolor="#ffffff"
     bordercolor="#666666"
     borderopacity="1"
     objecttolerance="10"
     gridtolerance="10"
     guidetolerance="10"
     inkscape:pageopacity="0"
     inkscape:pageshadow="2"
     inkscape:window-width="1920"
     inkscape:window-height="1026"
     id="namedview69"
     showgrid="false"
     fit-margin-top="0"
     fit-margin-left="0"
     fit-margin-right="0"
     fit-margin-bottom="0"
     inkscape:zoom="0.10284064"
     inkscape:cx="207.84586"
     inkscape:cy="90.3125"
     inkscape:window-x="0"
     inkscape:window-y="0"
     inkscape:window-maximized="1"
     inkscape:current-layer="svg2" />
  <g
     id="#ffffffff"
     transform="scale(0.25,0.25)">
    <path
       d="m 358,578 c 1.77,-1.17 4.35,-2.21 6.18,-0.54 l -0.23,0.54 -5.95,0 z"
       id="path5"
       inkscape:connector-curvature="0"
       style="opacity:1;fill:#ffffff" />
  </g>
  <g
     id="#4696c8ff"
     transform="scale(0.25,0.25)">
    <path
       d="m 628.25,0 0.74,0 c 0.53,4.98 0.63,10 0.52,15.01 0,95.68 -0.02,191.37 0.01,287.06 96.74,-96.44 193.19,-193.19 289.86,-289.71 3.49,-3.33 6.51,-7.32 10.81,-9.67 1.66,-0.85 3.1,0.61 4.45,1.38 -0.42,47.31 0.15,94.64 -0.28,141.95 0.27,38.64 0.09,77.33 0.15,115.99 0.29,9.69 -1.24,19.36 -0.15,29.04 0.38,16.09 -0.04,32.2 0.2,48.3 9.05,-8.21 17.35,-17.22 26.11,-25.74 102.3,-102.33 204.64,-204.63 306.95,-306.96 1.63,-1.53 3.45,-2.86 5.27,-4.18 1.62,1.47 3.53,3.02 3.1,5.5 0,50.01 0.06,100.01 -0.03,150.02 -0.82,10.2 0.12,20.39 0.01,30.6 60.28,-59.89 120.22,-120.13 180.34,-180.19 2.41,-2.2 4.38,-5.36 7.77,-6.09 1.55,0.33 1.08,2.47 1.4,3.66 0.07,94.69 -0.01,189.4 0.04,284.1 94.08,-93.77 187.89,-187.83 281.86,-281.71 0.91,-1.04 2.18,-1.48 3.6,-1.36 107,0 214.01,0.02 321.01,-0.01 1.81,-0.14 3.41,0.77 5.01,1.54 l 0,1.84 c -4.54,5.94 -10.22,10.84 -15.37,16.22 -29.44,29.23 -58.68,58.67 -88.1,87.92 -56.17,0.01 -112.33,-0.04 -168.5,0.02 -15.34,15.8 -31.25,31.03 -46.53,46.88 27.88,0.32 55.78,-0.22 83.66,0.28 0.14,0.89 0.42,2.67 0.56,3.56 -11.85,13 -25,24.73 -37.05,37.55 -23.41,22.84 -46.18,46.31 -69.52,69.22 -1.51,1.88 -3.96,2.04 -6.17,2.01 -28.6,-0.04 -57.19,-0.05 -85.79,-0.01 -16.17,16.42 -32.61,32.57 -48.82,48.96 94.24,0.05 188.49,0 282.73,0.02 2.76,-0.53 4.24,1.71 4.93,4.06 -19.9,20.43 -40.72,39.92 -60.52,60.44 -14.82,14.47 -29.3,29.26 -43.99,43.86 -1.13,1.01 -2.29,1.98 -3.42,2.96 -10.35,-0.72 -20.73,-0.13 -31.09,-0.32 C 1618,433.98 1492,434.03 1366,433.98 c -6.39,-0.51 -12.63,1.28 -18.99,1.04 -6.98,-0.24 -13.96,1.16 -20.9,0.27 -0.34,-0.35 -1.02,-1.06 -1.36,-1.41 1.71,-3.2 4.63,-5.46 7.12,-8.02 6.89,-6.92 13.85,-13.76 20.67,-20.75 -0.18,-39.51 0.12,-79.02 -0.15,-118.53 -14.92,14.05 -28.95,29 -43.72,43.2 -24.66,25.29 -50.12,49.79 -74.85,75.02 -7.88,7.51 -15.26,15.51 -23.19,22.96 -4.58,4.68 -8.85,9.78 -14.18,13.63 -2.77,1.7 -4.91,-1.89 -4.45,-4.34 -0.06,-58.32 0.1,-116.65 -0.07,-174.97 -5.23,2.89 -8.43,8.07 -12.91,11.84 -34.68,34.36 -69.14,68.97 -103.69,103.47 -13.53,13.8 -27.69,26.95 -41.13,40.84 -6.7,6.04 -12.45,13.1 -19.3,18.94 -8.61,0.58 -17.27,-0.32 -25.9,-0.13 -16.98,0.6 -33.98,-0.56 -50.95,0.44 -37.04,0.05 -74.07,0.01 -111.1,0.02 -4.78,0.1 -6.56,-5.56 -6.44,-9.51 -0.02,-31.01 -0.03,-62.02 0.01,-93.02 -0.71,-15.33 0.49,-30.67 -0.16,-46.02 -4.49,3.3 -8.03,7.63 -12.01,11.48 -39.56,39.37 -78.92,78.97 -118.49,118.33 -9.29,9.4 -18.57,18.83 -28.2,27.89 -13.29,14.03 -27.46,27.19 -40.83,41.15 -15.06,14.94 -30.01,29.99 -45.02,44.99 -10.98,10.71 -21.9,21.48 -32.69,32.38 -4.39,4.32 -8.6,8.83 -13.28,12.83 l -165.89,0 0.23,-0.54 c -1.83,-1.67 -4.41,-0.63 -6.18,0.54 l -0.94,0 c -0.38,-0.28 -1.14,-0.83 -1.51,-1.11 53.48,-53.84 107.27,-107.38 160.92,-161.05 -0.03,-42.46 0.18,-84.91 -0.1,-127.37 -7.46,6.83 -14.35,14.25 -21.55,21.35 -6.84,6.14 -12.8,13.17 -19.64,19.31 -22.4,23.27 -46.06,45.28 -68.59,68.43 -14.43,14.55 -29.07,28.9 -43.57,43.38 -1.08,0.86 -2.57,1.93 -4,1.35 -2.63,-0.75 -3.48,-3.82 -3.53,-6.24 -0.04,-58.94 0.09,-117.87 -0.06,-176.81 -5.56,5.06 -10.78,10.46 -16.08,15.79 -53.17,53.02 -106.19,106.21 -159.38,159.21 -4.67,-0.46 -9.33,0.16 -14,0.27 -44.66,-0.02 -89.32,0 -133.98,-0.01 -8.52,-0.02 -17.06,-0.17 -25.58,0.27 1.93,-3.1 4.57,-5.62 7.2,-8.11 C 154.44,285.81 295.31,145 436.12,4.13 c 0.82,-0.89 1.8,-1.5 2.96,-1.83 2.3,2.29 1.2,5.85 1.46,8.74 -0.01,58.61 -0.15,117.22 0.07,175.83 4.28,-3.81 8.18,-8 12.26,-12.01 C 506.7,121.03 560.53,67.2 614.37,13.37 618.96,8.88 623.28,4.09 628.25,0 Z"
       id="path8"
       inkscape:connector-curvature="0"
       style="opacity:1;fill:#4696c8" />
  </g>
  <g
     id="#060606ff"
     transform="scale(0.25,0.25)">
    <path
       d="M 0,485.01 C 4,484.99 7.99,485 11.99,485 c 1.56,8.01 4.09,15.79 5.55,23.83 1,-5.05 2.81,-9.91 3.67,-14.99 0.56,-2.86 1.2,-5.73 2.29,-8.43 3.68,-0.96 7.7,-0.19 11.5,-0.41 0,11.67 0,23.33 0,35 -2.33,0 -4.67,0 -7,0 -0.08,-8.75 0.21,-17.52 -0.24,-26.26 -1.88,8.77 -4.38,17.41 -5.85,26.26 -2.76,0 -5.52,0 -8.28,0.02 C 11.56,510.61 8.94,501.33 7.34,491.82 6.66,501.19 7.15,510.61 7,520 c -2.33,-0.01 -4.67,0 -7,0 l 0,-34.99 z"
       id="path11"
       inkscape:connector-curvature="0"
       style="opacity:1;fill:#060606" />
    <path
       d="m 63.44,485.06 c 2.29,-0.07 4.59,-0.13 6.89,-0.05 0.5,7.64 -0.02,15.33 0.21,22.99 0,1.74 0.99,3.24 1.71,4.76 3,1.57 6.74,2.74 9.85,0.73 2.6,-0.96 2.8,-4.11 2.89,-6.47 0.02,-7.34 0,-14.68 0.01,-22.02 2.33,0 4.67,0 7,0 -0.25,8.97 0.54,18 -0.45,26.93 -0.29,5.33 -5.9,8.3 -10.71,8.53 -4.73,0.07 -10.48,0.57 -13.98,-3.3 -2.7,-2.25 -2.94,-5.97 -3.32,-9.2 -0.17,-7.63 0.05,-15.27 -0.1,-22.9 z"
       id="path13"
       inkscape:connector-curvature="0"
       style="opacity:1;fill:#060606" />
    <path
       d="m 121,485 c 2.32,-0.01 4.65,-0.01 6.98,0.02 0.05,9.66 0,19.32 0.02,28.98 6,0 12,0 18,0 0,1.99 0,3.99 0,6 -8.37,0 -16.75,0 -25.12,0 0.26,-11.66 0.05,-23.34 0.12,-35 z"
       id="path15"
       inkscape:connector-curvature="0"
       style="opacity:1;fill:#060606" />
    <path
       d="m 170.44,485.05 c 9.19,-0.12 18.37,-0.02 27.56,-0.05 0,2.17 0,4.34 0,6.51 -3.32,0.01 -6.64,0.01 -9.97,-0.04 -0.46,9.5 -0.08,19.02 -0.21,28.53 -2.4,0 -4.8,-0.01 -7.2,0 0.14,-9.5 0.08,-19.01 0.03,-28.51 -3.38,0.03 -6.76,0.02 -10.15,0.02 -0.02,-2.16 -0.03,-4.31 -0.06,-6.46 z"
       id="path17"
       inkscape:connector-curvature="0"
       style="opacity:1;fill:#060606" />
    <path
       d="m 224.19,485.07 c 2.42,-0.09 4.85,-0.08 7.27,-0.09 0.12,11.67 0.03,23.35 0.05,35.02 -2.46,-0.01 -4.92,0 -7.37,0 0.05,-11.64 -0.05,-23.28 0.05,-34.93 z"
       id="path19"
       inkscape:connector-curvature="0"
       style="opacity:1;fill:#060606" />
    <path
       d="m 259.55,485 c 5.55,0.06 11.1,-0.12 16.65,0.06 3.51,0.17 7.39,1.68 8.93,5.08 2.58,4.77 1.68,11.63 -3.06,14.72 -4.61,2.96 -10.34,1.99 -15.53,2.14 -0.04,4.37 -0.05,8.73 0,13.1 -2.35,-0.1 -4.71,-0.11 -7.05,-0.11 0.04,-11.67 -0.09,-23.33 0.06,-34.99 m 6.97,6.52 c -0.01,2.98 -0.01,5.97 0,8.96 3.47,-0.1 7.06,0.44 10.44,-0.66 1.54,-0.69 2,-2.49 2.89,-3.76 -0.69,-1.27 -1.06,-2.78 -2.19,-3.75 -3.54,-1.38 -7.44,-0.63 -11.14,-0.79 z"
       id="path21"
       inkscape:connector-curvature="0"
       style="opacity:1;fill:#060606" />
    <path
       d="m 314,485 c 2.33,0 4.66,0 7,0 0,9.67 0,19.33 0,29 6,0 12,0 18,0 0,1.99 0,3.99 0,6 -8.33,0 -16.67,0 -25,0 0,-11.67 0,-23.33 0,-35 z"
       id="path23"
       inkscape:connector-curvature="0"
       style="opacity:1;fill:#060606" />
    <path
       d="m 365.55,485 c 8.56,0 17.13,0 25.7,0 -0.26,2.02 0.97,4.94 -0.55,6.43 -6.06,0.24 -12.13,0 -18.18,0.09 -0.01,2.49 -0.01,4.98 -0.01,7.48 5.83,0 11.66,0 17.49,0 0,1.99 0,3.99 0,6 -5.83,0 -11.66,0 -17.48,0 -0.01,3 -0.01,6 0,9 6.49,0 12.98,0 19.48,0 0,1.99 0,3.99 0,6 -8.84,0 -17.68,0 -26.51,0 0.03,-11.67 -0.08,-23.34 0.06,-35 z"
       id="path25"
       inkscape:connector-curvature="0"
       style="opacity:1;fill:#060606" />
    <path
       d="m 664.02,520.25 c 3.81,-11.9 8.41,-23.53 12.72,-35.25 2.49,-0.01 4.99,0 7.49,-0.02 4.54,11.67 8.77,23.47 13.07,35.24 -2.47,0.19 -4.95,0.13 -7.41,-0.07 -0.89,-2.56 -1.97,-5.06 -2.82,-7.63 -4.29,-0.01 -8.59,0.01 -12.88,-0.04 -1.06,2.35 -1.72,4.85 -2.52,7.3 -2.47,0.67 -5.12,0.17 -7.65,0.47 m 16.36,-25.69 c -1.32,3.79 -2.36,7.7 -4.08,11.34 2.79,0.23 5.6,0.34 8.41,0.28 -1.25,-3.94 -2.31,-7.99 -4.33,-11.62 z"
       id="path27"
       inkscape:connector-curvature="0"
       style="opacity:1;fill:#060606" />
    <path
       d="m 722.43,485.06 c 5.87,-0.12 11.74,-0.05 17.61,-0.07 3.79,0.17 8.42,0.96 10.27,4.76 3.4,5.77 -0.09,14.61 -7.28,14.78 5.54,3.66 7.64,10.36 11.56,15.46 -2.79,0.01 -5.57,-0.01 -8.35,0.12 -3.12,-4.43 -5.5,-9.5 -9.59,-13.16 -2.02,-1.6 -4.72,-1.45 -7.13,-1.52 -0.03,4.99 0.02,9.98 -0.04,14.97 -2.15,-0.45 -5.4,0.87 -6.9,-0.73 -0.27,-11.53 0.05,-23.08 -0.15,-34.61 m 7.09,6.46 c -0.01,2.65 -0.01,5.3 0,7.96 4.19,-0.17 8.5,0.53 12.6,-0.61 3.1,-0.94 3.28,-6.18 -0.09,-6.88 -4.06,-1.03 -8.36,-0.24 -12.51,-0.47 z"
       id="path29"
       inkscape:connector-curvature="0"
       style="opacity:1;fill:#060606" />
    <path
       d="m 781.04,492 c 4.47,-7.55 15.6,-9.89 22.74,-4.77 2.91,1.81 3.91,5.24 5.31,8.17 -2.28,0.54 -4.55,1.08 -6.82,1.64 -1.29,-2.03 -2.24,-4.77 -4.82,-5.47 -3.65,-1.39 -8.73,-0.28 -10.48,3.51 -2.06,4.62 -2.09,10.2 0.2,14.74 1.81,4.13 7.8,5.44 11.38,2.88 2.18,-1.29 3.13,-3.81 3.89,-6.1 2.44,0.71 4.78,1.68 7.18,2.54 -1.9,5.59 -6.48,10.94 -12.83,10.95 -6.34,1.15 -12.7,-2.22 -16.1,-7.51 -3.09,-6.44 -3.04,-14.28 0.35,-20.58 z"
       id="path31"
       inkscape:connector-curvature="0"
       style="opacity:1;fill:#060606" />
    <path
       d="m 846.48,485.02 c 2.54,-0.03 5.08,-0.02 7.63,-0.03 4.44,11.75 8.96,23.48 12.93,35.39 -2.47,-0.49 -5.4,0.49 -7.6,-0.69 -1.04,-2.37 -1.68,-4.88 -2.62,-7.27 -4.24,0.15 -8.48,0.09 -12.71,0.09 -0.99,2.41 -2,4.82 -2.69,7.33 -2.54,0.61 -5.15,0.68 -7.69,0.19 4.21,-11.68 8.47,-23.35 12.75,-35.01 m -0.15,21.27 c 2.8,0.09 5.61,0.15 8.43,0.18 -1.48,-3.97 -2.68,-8.02 -4.15,-11.99 -1.85,3.77 -3.2,7.75 -4.28,11.81 z"
       id="path33"
       inkscape:connector-curvature="0"
       style="opacity:1;fill:#060606" />
    <path
       d="m 892.46,485.03 c 7.81,0.55 16.46,-1.79 23.55,2.48 4.73,3.5 6.58,9.84 6.35,15.54 0.13,5.96 -2.23,12.75 -7.79,15.66 -7.02,2.84 -14.73,1.18 -22.07,1.62 -0.05,-11.77 0.03,-23.54 -0.04,-35.3 m 7.06,6.49 c -0.01,7.49 -0.01,14.98 -0.01,22.47 4.51,-0.24 9.85,1 13.56,-2.28 2.64,-4.58 2.18,-10.29 1.38,-15.32 -2.34,-6.17 -9.72,-4.83 -14.93,-4.87 z"
       id="path35"
       inkscape:connector-curvature="0"
       style="opacity:1;fill:#060606" />
    <path
       d="m 949.54,485 c 8.56,0 17.11,0 25.67,0 -0.26,2.05 0.85,4.8 -0.5,6.44 -5.94,0.22 -11.9,-0.01 -17.85,0.08 -0.01,2.49 -0.01,4.98 0.01,7.48 5.7,0 11.42,0 17.13,0 -0.01,2 -0.01,3.99 0,6 -5.71,0 -11.43,0 -17.13,0 -0.02,3 -0.01,6 0.01,9 6.37,0 12.74,0 19.12,0 -0.01,2.12 -0.01,4.25 0,6.38 -8.84,-0.07 -17.67,-0.59 -26.51,-0.38 0.03,-11.67 -0.08,-23.34 0.05,-35 z"
       id="path37"
       inkscape:connector-curvature="0"
       style="opacity:1;fill:#060606" />
    <path
       d="m 1039.02,485.02 c 3.98,-0.04 7.97,-0.01 11.96,-0.03 1.51,8.01 4.22,15.75 5.45,23.82 1.11,-5.03 2.98,-9.88 3.77,-14.98 0.5,-3.03 1.44,-5.97 2.45,-8.86 3.77,0.04 7.56,0.03 11.35,0.03 0,11.67 0,23.33 0,35 -2.34,0 -4.68,-0.01 -7,0 -0.14,-8.71 0.32,-17.44 -0.34,-26.13 -1.72,8.75 -4.37,17.32 -5.72,26.13 -2.78,0 -5.54,-0.01 -8.3,0.02 -2.04,-9.4 -4.78,-18.63 -6.21,-28.15 -0.89,9.34 -0.23,18.76 -0.43,28.13 -2.34,-0.01 -4.68,0 -7,0 0.02,-11.66 -0.03,-23.32 0.02,-34.98 z"
       id="path39"
       inkscape:connector-curvature="0"
       style="opacity:1;fill:#060606" />
    <path
       d="m 1107.75,495.67 c 1.11,-3.64 2.5,-7.19 4.01,-10.68 2.42,0 4.86,0.01 7.31,0 4.79,11.48 8.61,23.34 13.13,34.92 -2.44,0.35 -4.89,0.49 -7.33,0.51 -0.97,-2.59 -1.78,-5.25 -2.94,-7.76 -4.28,-0.36 -8.57,-0.05 -12.84,-0.16 -1.23,2.46 -1.48,5.49 -3.09,7.67 -2.41,0.01 -4.8,-0.04 -7.19,-0.14 3.02,-8.11 5.79,-16.31 8.94,-24.36 m 3.57,10.55 c 2.78,-0.06 5.56,-0.06 8.35,0 -1.41,-3.79 -2.3,-7.76 -4.13,-11.38 -1.94,3.59 -2.73,7.61 -4.22,11.38 z"
       id="path41"
       inkscape:connector-curvature="0"
       style="opacity:1;fill:#060606" />
    <path
       d="m 1165.13,486.18 c 5.38,-2.78 12.35,-2.11 17.06,1.71 2.29,1.91 3.19,4.89 4.51,7.48 -2.27,0.58 -4.55,1.07 -6.8,1.68 -1.38,-2.01 -2.22,-4.92 -4.9,-5.48 -5.01,-2.19 -11.25,1.46 -11.6,6.99 -0.03,4.01 -0.75,8.65 1.86,12.06 2.2,3.32 7.28,4.55 10.62,2.23 2.31,-1.37 3.35,-3.99 4.32,-6.35 2.31,0.91 4.65,1.75 6.95,2.7 -1.76,3.9 -3.75,8.28 -8.1,9.84 -4.86,1.66 -10.78,1.91 -15.22,-1.04 -11.21,-6.67 -10.43,-26.09 1.3,-31.82 z"
       id="path43"
       inkscape:connector-curvature="0"
       style="opacity:1;fill:#060606" />
    <path
       d="m 1214.78,484.99 c 2.39,0 4.79,0 7.2,0.03 0.03,4.66 0.01,9.32 0.02,13.98 4.82,0 9.65,0 14.48,0 0,-4.65 0.03,-9.3 -0.04,-13.94 2.32,-0.07 4.66,-0.07 7.01,-0.08 0.14,11.76 0.04,23.52 0.05,35.29 -2.35,0.09 -4.68,0.1 -7.01,0.14 0,-5.11 -0.05,-10.22 0.05,-15.33 -4.85,-0.13 -9.7,-0.07 -14.54,-0.08 0,5.08 -0.01,10.17 0,15.25 -2.46,0.17 -4.93,0.16 -7.35,-0.21 0.09,-11.69 -0.14,-23.37 0.13,-35.05 z"
       id="path45"
       inkscape:connector-curvature="0"
       style="opacity:1;fill:#060606" />
    <path
       d="m 1272.02,485.03 c 2.31,-0.04 4.64,-0.04 6.98,-0.03 0,11.76 -0.01,23.52 0,35.29 -2.35,0 -4.68,-0.21 -7,-0.32 0.02,-11.65 -0.03,-23.3 0.02,-34.94 z"
       id="path47"
       inkscape:connector-curvature="0"
       style="opacity:1;fill:#060606" />
    <path
       d="m 1307.44,485.05 c 2.47,-0.07 4.95,-0.06 7.45,-0.03 4.36,7.81 9.81,14.96 13.93,22.9 0.34,-7.64 0.11,-15.28 0.18,-22.92 2.32,0 4.65,0 7,0 0,11.68 -0.01,23.35 0,35.03 -2.59,0.37 -5.21,0.4 -7.8,0.21 -4.25,-7.38 -8.7,-14.69 -13.64,-21.61 -0.11,7.16 -0.02,14.32 -0.05,21.48 -2.37,0.15 -4.73,0.28 -7.06,-0.08 0.06,-11.66 0.06,-23.32 -0.01,-34.98 z"
       id="path49"
       inkscape:connector-curvature="0"
       style="opacity:1;fill:#060606" />
    <path
       d="m 1364.76,485 c 8.56,0 17.12,0 25.68,0 0.05,2.09 0.07,4.18 0.11,6.28 -6.18,0.5 -12.37,0.11 -18.55,0.24 -0.02,2.49 -0.01,4.98 0,7.48 5.66,0 11.33,0 17,0 -0.01,1.99 -0.02,3.99 0,6 -5.67,0 -11.34,0 -17,0 -0.01,3 -0.01,6 0,9 6.41,0 12.82,0 19.23,0 0.08,1.99 0.13,3.99 0.18,6 -8.92,0.06 -17.84,-0.14 -26.75,0.13 0.06,-11.71 -0.15,-23.43 0.1,-35.13 z"
       id="path51"
       inkscape:connector-curvature="0"
       style="opacity:1;fill:#060606" />
    <path
       d="m 1454.44,485.05 c 8.52,-0.12 17.04,-0.01 25.56,-0.05 -0.01,2.16 -0.01,4.32 0.01,6.49 -6.17,0.05 -12.33,0.01 -18.49,0.03 -0.02,2.49 -0.02,4.98 0,7.48 5.78,0 11.56,0 17.36,0 -0.02,1.99 -0.02,3.99 0,6 -5.79,0 -11.58,-0.01 -17.36,0 -0.02,3 -0.02,6 -0.01,9 6.49,0 12.99,0 19.49,0 -0.01,2.07 -0.01,4.15 0,6.24 -8.83,0.29 -17.67,0.06 -26.5,0.14 -0.06,-11.78 0.05,-23.55 -0.06,-35.33 z"
       id="path53"
       inkscape:connector-curvature="0"
       style="opacity:1;fill:#060606" />
    <path
       d="m 1508.45,485.03 c 3.82,-0.06 7.65,-0.03 11.49,-0.03 1.14,3.54 2.07,7.15 2.73,10.82 0.83,4.48 2.87,8.71 2.8,13.35 2.58,-7.74 3.73,-15.91 6.08,-23.69 3.67,-1.16 7.98,-0.15 11.9,-0.48 0.14,11.67 0.02,23.33 0.06,35 -2.36,-0.01 -4.7,0 -7.02,0 -0.03,-9.12 0.02,-18.24 -0.01,-27.36 -2.61,9 -4.35,18.25 -6.59,27.36 -2.77,0 -5.55,0 -8.3,0.01 -0.63,-6.18 -2.97,-11.99 -3.99,-18.1 -0.45,-2.65 -1.29,-5.2 -2.03,-7.76 l -0.22,0.04 c 0.35,8.6 0.07,17.2 0.16,25.81 -2.35,0 -4.68,0 -6.99,0.01 -0.09,-11.66 0.02,-23.32 -0.07,-34.98 z"
       id="path55"
       inkscape:connector-curvature="0"
       style="opacity:1;fill:#060606" />
    <path
       d="m 1571.54,484.98 c 2.41,0 4.85,0 7.29,0.11 0.19,8.5 -0.16,17.01 0.2,25.5 0.35,0.56 1.05,1.67 1.4,2.22 3.07,1.56 6.86,2.64 10.03,0.63 2.19,-0.77 2.28,-3.38 2.64,-5.3 0.18,-7.7 0.09,-15.42 0.01,-23.12 2.35,-0.03 4.71,-0.03 7.09,-0.03 0.14,8.32 0.27,16.65 -0.05,24.97 0.05,4.12 -2.67,8.13 -6.57,9.5 -4.75,1.51 -9.93,1.39 -14.72,0.2 -4.46,-1.68 -7.16,-6.25 -7.23,-10.91 -0.33,-7.92 -0.11,-15.85 -0.09,-23.77 z"
       id="path57"
       inkscape:connector-curvature="0"
       style="opacity:1;fill:#060606" />
    <path
       d="m 1629,485 c 2.32,0 4.65,0 7,0 -0.01,9.67 0,19.33 0,29 5.99,0 11.99,0 18,0 -0.02,2.01 -0.02,4.04 0,6.06 -8.34,-0.07 -16.68,-0.15 -25,0.08 0,-11.72 0,-23.43 0,-35.14 z"
       id="path59"
       inkscape:connector-curvature="0"
       style="opacity:1;fill:#060606" />
    <path
       d="m 1690.06,485 c 2.54,-0.01 5.09,-0.03 7.66,0.08 4.32,11.65 8.75,23.29 12.83,35.03 -2.48,-0.11 -4.94,-0.12 -7.39,-0.11 -0.95,-2.48 -1.8,-4.99 -2.69,-7.48 -4.29,-0.02 -8.56,0 -12.83,-0.01 -1.03,2.47 -2.08,4.93 -2.87,7.49 -2.49,0 -4.97,0.01 -7.43,-0.03 4.07,-11.72 8.49,-23.31 12.72,-34.97 m -0.19,21.16 c 2.77,-0.01 5.55,-0.02 8.35,-0.02 -1.6,-3.75 -2.63,-7.7 -4.11,-11.49 -1.9,3.66 -3.1,7.58 -4.24,11.51 z"
       id="path61"
       inkscape:connector-curvature="0"
       style="opacity:1;fill:#060606" />
    <path
       d="m 1733.78,485 c 9.25,0 18.49,0 27.74,0 -0.02,2.15 -0.03,4.31 -0.05,6.47 -3.49,0.05 -6.98,0.04 -10.46,0.07 -0.03,9.48 -0.01,18.97 -0.01,28.46 -2.35,0 -4.68,-0.01 -7,0 0,-9.5 0,-19 0,-28.49 -3.4,-0.22 -6.97,0.5 -10.23,-0.36 -0.19,-2.05 -0.08,-4.11 0.01,-6.15 z"
       id="path63"
       inkscape:connector-curvature="0"
       style="opacity:1;fill:#060606" />
    <path
       d="m 1796.42,485.68 c 6.2,-2.45 13.6,-1.07 18.7,3.15 4.71,4.71 5.51,11.99 4.57,18.29 -0.55,5.13 -3.99,9.81 -8.61,12.04 -5.15,1.84 -10.99,1.91 -16.09,-0.15 -5.21,-2.52 -8.57,-8.31 -8.5,-14.04 -0.04,-4.03 -0.45,-8.45 1.9,-11.99 1.55,-3.44 4.61,-5.86 8.03,-7.3 m 3.01,5.89 c -3,1.32 -5.38,4.19 -5.67,7.53 -0.83,5.08 -0.21,11.89 5.14,14.28 4.73,2.86 11.87,0.15 13.25,-5.27 1.75,-5.48 1.14,-12.88 -4.17,-16.19 -2.71,-1.08 -5.8,-1.29 -8.55,-0.35 z"
       id="path65"
       inkscape:connector-curvature="0"
       style="opacity:1;fill:#060606" />
    <path
       d="m 1847.44,485.06 c 5.84,-0.12 11.69,-0.05 17.55,-0.07 4.06,0.12 9.17,1.16 10.63,5.56 2.9,5.72 -0.86,13.78 -7.6,14.04 5.65,3.61 7.66,10.46 11.7,15.53 -2.83,-0.14 -5.63,-0.14 -8.43,-0.1 -3.18,-4.37 -5.55,-9.41 -9.61,-13.05 -2.01,-1.68 -4.75,-1.46 -7.15,-1.53 -0.03,4.83 -0.05,9.67 0.03,14.51 -2.39,0.06 -4.76,0.05 -7.11,0.03 0.05,-11.64 0.08,-23.28 -0.01,-34.92 m 7.08,6.46 c -0.02,2.65 -0.02,5.3 0,7.96 4.36,-0.21 8.93,0.65 13.16,-0.82 2.66,-1.56 2.4,-6.07 -0.77,-6.82 -4.07,-0.76 -8.28,-0.14 -12.39,-0.32 z"
       id="path67"
       inkscape:connector-curvature="0"
       style="opacity:1;fill:#060606" />
  </g>
</svg>
