<svg xmlns="http://www.w3.org/2000/svg" xmlns:i="&amp;ns_ai;" xmlns:xlink="http://www.w3.org/1999/xlink" viewBox="0 270.03 612 251.92">
  <switch>
    <g i:extraneous="self">
      <path fill="#1A1A1A" d="M15.95 312h581.83v195.27H15.95z"/>
      <path fill="gray" d="M205.96 305.04h153.28c5.36 0 9.7 4.35 9.7 9.7v10.6c0 5.37-4.34 9.72-9.7 9.72H205.96c-5.36 0-9.7-4.35-9.7-9.7v-10.6c0-5.37 4.34-9.72 9.7-9.72zm0 183.02h153.28c5.36 0 9.7 4.35 9.7 9.7v10.6c0 5.37-4.34 9.7-9.7 9.7H205.96c-5.36 0-9.7-4.33-9.7-9.7v-10.6c0-5.35 4.34-9.7 9.7-9.7z"/>
      <path fill="#DCDCDC" d="M8.15 270.03c-4.5 0-8.15 3.65-8.15 8.16v235.6c0 4.5 3.64 8.1 8.15 8.1h595.9c4.5 0 7.95-3.7 7.95-8.2V278.2c0-4.52-3.45-8.17-7.96-8.17H8.14zM15.9 312h582v195.24h-582V312z"/>
      <path stroke="#FFF" stroke-width="1.65" d="M87.54 362c-2.68 0-4.7 2.22-4.7 4.9v33.75H49.07c-2.68 0-4.9 2.22-4.9 4.9v27.15c0 2.7 2.22 4.9 4.9 4.9h33.75v33.75c0 2.7 2.03 4.72 4.7 4.72h27.35c2.7 0 4.7-2.03 4.7-4.72V437.6h33.76c2.68 0 4.9-2.2 4.9-4.9v-27.14c0-2.7-2.22-4.9-4.9-4.9H119.6V366.9c0-2.68-2.04-4.9-4.72-4.9H87.54z" stroke-linecap="round"/>
      <path fill="#1A1A1A" d="M88.48 366.25c-.85 0-1.5.66-1.5 1.5v36.84H50.15c-.85 0-1.5.6-1.5 1.5V432c0 .85.65 1.57 1.5 1.57h36.83v36.76c0 .85.66 1.58 1.5 1.58h26.02c.85 0 1.5-.7 1.5-1.5v-36.8h36.84c.85 0 1.5-.7 1.5-1.5v-26c0-.84-.65-1.5-1.5-1.5H116v-36.83c0-.85-.65-1.5-1.5-1.5H88.48z"/>
      <path fill="gray" d="M205.96 343.67h153.28c5.36 0 9.7 4.34 9.7 9.7v10.6c0 5.36-4.34 9.7-9.7 9.7H205.96c-5.36 0-9.7-4.34-9.7-9.7v-10.6c0-5.36 4.34-9.7 9.7-9.7z"/>
      <path fill="#DDD" d="M400.22 413.72H460c2.62 0 4.76 2.13 4.76 4.77v59.7c0 2.6-2.14 4.7-4.77 4.7h-59.8c-2.7 0-4.8-2.17-4.8-4.8v-59.7c0-2.67 2.1-4.8 4.7-4.8z"/>
      <path fill="#F00" d="M458.5 448.66c0 15.7-12.7 28.4-28.4 28.4s-28.4-12.7-28.4-28.4 12.72-28.4 28.4-28.4 28.4 12.7 28.4 28.4z"/>
      <path fill="#DDD" d="M478.93 413.72h59.76c2.6 0 4.7 2.13 4.7 4.77v59.7c0 2.6-2.2 4.7-4.8 4.7h-59.7c-2.7 0-4.8-2.17-4.8-4.8v-59.7c0-2.67 2.1-4.8 4.73-4.8z"/>
      <path fill="#F00" d="M537.24 448.66c0 15.7-12.72 28.4-28.4 28.4-15.7 0-28.4-12.7-28.4-28.4s12.7-28.4 28.4-28.4c15.68 0 28.4 12.7 28.4 28.4z"/>
      <path fill="gray" d="M205.96 382.3h153.28c5.36 0 9.7 4.36 9.7 9.72v10.6c0 5.36-4.34 9.7-9.7 9.7H205.96c-5.36 0-9.7-4.34-9.7-9.7V392c0-5.36 4.34-9.7 9.7-9.7z"/>
      <path fill="#DDD" d="M207.07 420.45h151.1c5.96 0 10.8 4.85 10.8 10.83v35.34c0 5.98-4.84 10.82-10.8 10.82h-151.1c-5.98 0-10.82-4.85-10.82-10.82v-35.34c0-5.98 4.84-10.83 10.82-10.83z"/>
      <path fill="none" stroke="gray" stroke-width="1.46" d="M212.2 425.9h140.87c4.9 0 8.86 3.96 8.86 8.85v28.95c0 4.9-3.97 8.87-8.86 8.87H212.2c-4.9 0-8.87-3.97-8.87-8.87v-28.95c0-4.9 3.96-8.86 8.86-8.86z" stroke-linecap="round"/>
      <path d="M225.68 440.4h29.4c5.28 0 9.56 4.3 9.56 9.57 0 5.28-4.28 9.56-9.56 9.56h-29.4c-5.28 0-9.56-4.28-9.56-9.56s4.28-9.56 9.56-9.56zm84 0h29.4c5.27 0 9.55 4.3 9.55 9.57 0 5.28-4.28 9.56-9.56 9.56h-29.4c-5.27 0-9.56-4.28-9.56-9.56s4.3-9.56 9.6-9.56z"/>
      <path fill="#F00" d="M205.85 403.03h7.82c2.24 0 3.36-1.03 3.36-3.08s-1.12-3.07-3.36-3.07h-5.6v-1.68h8.96v-2.23h-7.83c-2.23 0-3.35 1.04-3.35 3.12 0 2 1.12 3 3.35 3h5.6v1.6h-8.95v2.3zm23.47 0h-7.82c-2.24 0-3.35-1.12-3.35-3.36v-6.7h11.17v2.23h-8.94v1.68h8.94v2.23h-8.94v.6c0 .8.37 1.1 1.12 1.1h7.82v2.3zm1.1-10.08v6.7c0 2.25 1.1 3.37 3.36 3.37h7.83v-2.24h-7.8c-.7 0-1.1-.37-1.1-1.12v-6.7h-2.2zm23.48 10.08h-7.82c-2.24 0-3.36-1.12-3.36-3.36v-6.7h11.18v2.23h-8.94v1.68h8.94v2.23h-8.94v.6c0 .8.37 1.1 1.12 1.1h7.82v2.3zm12.3 0h-7.82c-2.24 0-3.35-1.12-3.35-3.36v-3.35c0-2.23 1.1-3.35 3.35-3.35h7.82v2.23h-7.82c-.75 0-1.12.38-1.12 1.12v3.35c0 .75.37 1.12 1.12 1.12h7.82v2.2zm1.13-10.08h11.18v2.24h-4.4v7.8h-2.2v-7.9h-4.4v-2.3zm31.33 10.08h7.82c2.24 0 3.36-1.03 3.36-3.08s-1.12-3.07-3.36-3.07h-5.6v-1.68h8.96v-2.23H302c-2.22 0-3.34 1.04-3.34 3.12 0 2 1.12 3 3.35 3h5.6v1.6h-8.9v2.3zm12.28-10.08h11.18v2.24h-4.47v7.8h-2.24v-7.9H311v-2.3zM332.2 398v-1.7c0-.73-.4-1.1-1.13-1.1h-4.47c-.75 0-1.12.37-1.12 1.1v1.7h6.7zm-6.72 2.23v2.8h-2.23v-6.72c0-2.2 1.1-3.3 3.35-3.3h4.47c2.24 0 3.35 1.1 3.35 3.4v6.7h-2.23v-2.8h-6.8zm12.28-3.36h6.7v-1.68h-6.7v1.6zm0 2.23v3.9h-2.23v-10.05h7.83c2.23 0 3.35 1.02 3.35 3.07 0 .97-.1 1.68-.4 2.13.3.53.5 1.22.5 2.07v2.8h-2.2v-2.8c0-.75-.33-1.12-1.1-1.12h-5.6zm10.08-6.15h11.18v2.24h-4.47v7.8h-2.24v-7.9h-4.4v-2.3zm109.22 100.2h8.03v-2H457v2zm0 4.7h8.03v-2.03H457v2zm-2.67 2.65v-12.03h9.3c2.6 0 4 1.2 4 3.63 0 1-.2 1.8-.7 2.38.4.6.6 1.38.6 2.37 0 2.43-1.34 3.65-4 3.65h-9.37zm89.4-5.5v-2.02c0-.9-.5-1.34-1.4-1.34H537c-.9 0-1.34.45-1.34 1.34v2h8zm-8 2.66V501h-2.7v-8.02c0-2.67 1.3-4 4-4h5.3c2.7 0 4 1.33 4 4V501h-2.7v-3.34h-8z"/>
      <path fill="none" stroke="#000" stroke-width=".5" d="M63.18 408.34l-5.48 5.48-5.47 5.47 5.47 5.4 5.48 5.5v-3.3h10.95v-15.3H63.18v-3.3zm76.5 0l5.48 5.48 5.48 5.47-5.48 5.4-5.48 5.5v-3.3h-10.95v-15.3h10.95v-3.3zm-27.4-27.67l-5.48-5.48-5.48-5.5-5.48 5.4-5.47 5.4h3.28v10.95H109v-10.9h3.28zm0 77.66l-5.48 5.48-5.48 5.5-5.48-5.5-5.47-5.4h3.28v-11H109v11h3.28z"/>
      <path fill="none" stroke="#000" stroke-width=".74" d="M114.65 419.1c0 7.27-5.88 13.16-13.14 13.16s-13.1-5.86-13.1-13.13v-.02c0-7.2 5.9-13.1 13.2-13.1s13.2 5.9 13.2 13.2z"/>
      <path fill="#1A1A1A" d="M228.2 442.27h24.4c5.27 0 9.55 3.45 9.55 7.7 0 4.26-4.28 7.7-9.56 7.7h-24.4c-5.3 0-9.6-3.44-9.6-7.7 0-4.25 4.3-7.7 9.5-7.7zm83.97 0h24.4c5.27 0 9.56 3.45 9.56 7.7 0 4.26-4.28 7.7-9.56 7.7h-24.4c-5.28 0-9.56-3.44-9.56-7.7 0-4.25 4.3-7.7 9.6-7.7z"/>
    </g>
  </switch>
</svg>
