<svg xmlns="http://www.w3.org/2000/svg" width="773.89996" height="338.01636">
  <g transform="translate(-98.05 -670.854)">
    <path fill="#c4c1bc" d="M257.27502 677.14537v.15c-88.52983 3.48381-159.224998 76.34115-159.224998 165.725 0 91.6067 74.268288 165.85003 165.874998 165.85003 34.14624 0 65.89872-10.31132 92.275-28.00004 4.646-3.11576 6.11516-4.02656 10.725-6.3 4.4628-2.20088 10.00532-3.72496 13.125-3.72496h209.925c3.11968 0 8.6372 1.52408 13.1 3.72496 4.60984 2.27344 6.104 3.18424 10.75 6.3 26.37632 17.68872 58.10376 28.00004 92.25 28.00004 91.60672 0 165.87504-74.24333 165.87496-165.85003 0-89.38385-70.69512-162.24119-159.22496-165.725v-.15h-455.45z"/>
    <circle cx="707.14056" cy="843.01282" r="145.44395" fill="#747b81"/>
    <path fill="#c4c1bc" d="M620.2871 676.59178h88.78888s2.13848-.0306 3.20704 0c3.02.0866 6.03752.27469 9.0488.51941 2.772.22528 5.43776.49907 8.29776.87314 2.9036.41514 5.29656.63348 7.9228 1.09157 2.1056.36726 4.196.82366 6.2732 1.32701 2.1324.51674 4.25896 1.12711 6.34904 1.73678 1.72152.50216 3.40016 1.03145 5.08912 1.5821 2.9492.96153 6.34872 2.12796 8.80704 3.00601 1.36288.50725 2.43184.91439 3.95848 1.53709 1.52672.62269 3.50328 1.4468 5.19136 2.22041 1.74792.80104 3.51168 1.63496 5.20872 2.48636 1.59872.80205 3.21896 1.6358 4.77264 2.47092.75016.40319 1.44552.76844 2.17456 1.1536.51432.2718 1.02808.5585 1.54248.8372.268.14521.80424.43509.80424.43509l.52736-4.36397c-.21248-.65123-.80792-1.12413-1.32856-1.38575-.90232-.56387-1.72424-1.05462-2.58712-1.5807-1.15512-.70427-2.29328-1.43733-3.46744-2.10947-.80544-.46108-1.62272-.9022-2.45224-1.31843-.98408-.49381-1.99848-.92488-2.99288-1.39753-.81128-.3856-1.5756-.77729-2.42584-1.17339-.85024-.39609-.65576-.37119-2.6764-1.19977-2.02064-.82857-6.74992-2.50283-9.52992-3.55295-2.13792-.75608-3.27632-1.11024-4.72224-1.61525-2.6412-.84708-4.92088-1.358-8.27968-2.24132-2.03264-.53456-3.02256-.9489-5.31328-1.3448-2.02848-.35057-3.59864-.70997-5.14976-.93156l-1.93016-.29457s-1.41864-.2172-2.47864-.35597-2.80688-.35361-3.88336-.45918c-1.2128-.11572-2.0644-.23863-4.7948-.56654-2.7304-.32792-6.31264-.56453-9.4264-.82421-1.5792-.1326-4.99416-.2991-4.99416-.2991h-82.50688l-2.78184.2505-2.08312.76468-1.39752 1.06792-.80424 1.23273zm-270.5627 0h-88.78884s-2.13848-.0306-3.20704 0c-3.02.0866-6.03752.27469-9.04879.51941-2.772.22528-5.43776.49907-8.29776.87314-2.9036.41514-5.29656.63348-7.9228 1.09157-2.1056.36726-4.196.82366-6.2732 1.32701-2.1324.51674-4.25896 1.12711-6.34904 1.73678-1.72152.50216-3.40016 1.03145-5.08912 1.5821-2.9492.96153-6.34872 2.12796-8.80704 3.00601-1.36288.50725-2.43184.91439-3.95848 1.53709-1.52672.62269-3.50328 1.4468-5.19136 2.22041-1.74792.80104-3.51168 1.63496-5.20872 2.48636-1.59872.80205-3.21896 1.6358-4.77264 2.47092-.75016.40319-1.44552.76844-2.17456 1.1536-.51432.2718-1.02808.5585-1.54248.8372-.268.14521-.80424.43509-.80424.43509l-.52736-4.36397c.21248-.65123.80792-1.12413 1.32856-1.38575.90232-.56387 1.72424-1.05462 2.58712-1.5807 1.15512-.70427 2.29328-1.43733 3.46744-2.10947.80544-.46108 1.62272-.9022 2.45224-1.31843.98408-.49381 1.99848-.92488 2.99288-1.39753.81128-.3856 1.5756-.77729 2.42584-1.17339.85024-.39609.65576-.37119 2.6764-1.19977 2.02064-.82857 6.74992-2.50283 9.52992-3.55295 2.13792-.75608 3.27632-1.11024 4.72224-1.61525 2.6412-.84708 4.92088-1.358 8.27968-2.24132 2.03264-.53456 3.02256-.9489 5.31328-1.3448 2.02848-.35057 3.59864-.70997 5.14976-.93156l1.93016-.29457s1.41864-.2172 2.47864-.35597 2.80688-.35361 3.88336-.45918c1.2128-.11572 2.0644-.23863 4.7948-.56654 2.7304-.32792 6.31263-.56453 9.42639-.82421 1.5792-.1326 4.99416-.2991 4.99416-.2991h82.50684l2.78184.2505 2.08312.76468 1.39752 1.06792.80424 1.23273z"/>
    <circle cx="262.87091" cy="843.01282" r="91.884056" fill="none" stroke="#747b81" stroke-width=".89275366"/>
    <path fill="#485053" stroke="#1a1c1b" stroke-width="2.4000001" d="M249.02088 778.2753c-3.64813 0-6.575 2.92688-6.575 6.575v37.72504h-37.725c-3.64813 0-6.6 2.95184-6.6 6.6v27.67496c0 3.64816 2.95187 6.57496 6.6 6.57496h37.725v37.72504c0 3.64816 2.92687 6.6 6.575 6.6h27.7c3.64813 0 6.575-2.95184 6.575-6.6v-37.72504h37.725c3.64813 0 6.6-2.9268 6.6-6.57496v-27.67496c0-3.64816-2.95187-6.6-6.6-6.6h-37.725V784.8503c0-3.64812-2.92687-6.575-6.575-6.575h-27.7z" stroke-linejoin="bevel"/>
    <path fill="#485053" stroke="#1a1c1b" stroke-width=".80000001" d="M294.71976 856.20952l.0248-26.39344 26.07632 13.21576zm-63.69776.00001l-.0248-26.39344-26.07632 13.21576zm45.0456-45.03311l-26.39344-.0248 13.21576-26.07632zm0 63.67276l-26.39344.0248 13.21576 26.07632z"/>
    <rect width="168.42262" height="74.774864" x="-54.407486" y="1016.6126" fill="#c4c1bc" ry="46.734291" transform="rotate(-37.88)" rx="46.734291"/>
    <circle cx="707.60883" cy="784.91168" r="29.477573" fill="#014da3" stroke="#1a1c1b" stroke-width=".80000001"/>
    <circle cx="633.80646" cy="842.30139" r="29.477573" fill="#00926d" stroke="#1a1c1b" stroke-width=".80000001"/>
    <rect width="168.42262" height="74.774864" x="-31.23488" y="1106.3429" fill="#c4c1bc" ry="46.734291" transform="rotate(-37.88)" rx="46.734291"/>
    <circle cx="780.99548" cy="841.50592" r="29.477573" fill="#e03c4b" stroke="#1a1c1b" stroke-width=".80000001"/>
    <circle cx="707.19312" cy="898.89569" r="29.477573" fill="#ffbc54" stroke="#1a1c1b" stroke-width=".80000001"/>
    <rect width="65.205406" height="24.494259" x="-156.60945" y="979.11499" fill="#485053" ry="15.308912" transform="rotate(-36.952)" rx="15.308912"/>
    <rect width="65.205406" height="24.494259" x="-223.91614" y="928.48364" fill="#485053" ry="15.308912" transform="rotate(-36.952)" rx="15.308912"/>
    <path fill="#747b81" stroke="#747b81" stroke-width=".8" d="M389.095072 927.324736c-.05728.280728-.191936.509896-.403912.687496-.206256.177608-.449744.266408-.730464.266408h-3.385944c-.280728 0-.495568-.0888-.644528-.266408-.143232-.1776-.1862-.406768-.128904-.687496l.687496-3.41172h1.194536l-.66172 3.308592h2.904688l.635936-3.205464-2.81016-4.485944c-.20052-.30936-.263544-.650248-.189056-1.022656l.55-2.724216c.05728-.280712.19192-.50988.403904-.687496.217704-.177592.46692-.2664.747656-.266408h3.385936c.28072.000008.48984.088816.627344.266408.143224.177616.186192.406784.128904.687496l-.627344 3.128128h-1.194528l.60156-3.025h-2.904688l-.567184 2.835936 2.835936 4.485936c.189056.29792.246352.63308.17188 1.005472l-.627344 3.110936m9.77968.953904h-4.417184l2.689848-13.449216h4.365624l-.214848 1.057032h-3.171096l-.996872 5.018744h2.887504l-.214848 1.074224h-2.887496l-1.04844 5.242184h3.222656l-.214848 1.057032m9.607816 0h-4.296872l2.68984-13.449216h1.194536l-2.475 12.392184h3.102344l-.214848 1.057032m9.504688 0h-4.417184l2.68984-13.449216h4.365624l-.21484 1.057032H417.2396l-.996872 5.018744h2.887496l-.21484 1.074224h-2.887504l-1.04844 5.242184h3.222656l-.21484 1.057032m10.88828-.953904c-.05728.280728-.1948.509896-.412496.687496-.21772.177608-.466936.266408-.747656.266408h-3.463288c-.280728 0-.492704-.0888-.635936-.266408-.143232-.1776-.1862-.406768-.128904-.687496l2.31172-11.541408c.05728-.280712.19192-.50988.403904-.687496.211976-.177592.458328-.2664.739064-.266408h3.46328c.28072.000008.495568.088816.644528.266408.148952.177616.194784.406784.137504.687496l-.627344 3.128128h-1.203128l.601568-3.025h-2.990624l-2.26016 11.335152h2.990624l.66172-3.308592h1.203128l-.687504 3.41172m12.460936-11.43828h-2.079688l-2.475 12.392184h-1.194528l2.475-12.392184h-2.096872l.21484-1.057032h5.371096l-.214848 1.057032m36.400024 11.43828c-.05728.280728-.191928.509896-.403904.687496-.206256.177608-.449744.266408-.730464.266408h-3.385944c-.280728 0-.495568-.0888-.644528-.266408-.143232-.1776-.1862-.406768-.128904-.687496l.687496-3.41172h1.194536l-.66172 3.308592h2.904688l.635936-3.205464-2.81016-4.485944c-.20052-.30936-.263544-.650248-.189064-1.022656l.55-2.724216c.05728-.280712.191928-.50988.403912-.687496.217704-.177592.46692-.2664.747656-.266408h3.385936c.28072.000008.489832.088816.627344.266408.143216.177616.186192.406784.128904.687496l-.627344 3.128128h-1.194528l.60156-3.025h-2.904688l-.567184 2.835936 2.835936 4.485936c.189056.29792.246344.63308.171872 1.005472l-.627344 3.110936m12.469536-11.43828h-2.079688l-2.475 12.392184h-1.194536l2.475-12.392184h-2.096872l.214848-1.057032h5.371088l-.21484 1.057032m7.80312 12.392184h-1.185936l.128912-2.990624h-2.672664l-1.074216 2.990624h-1.15156l.00856-.0344 5.087504-13.449216h1.177344l-.317976 13.483592m-1.005464-4.047656l.283592-7.287496-2.646872 7.287496h2.36328m11.790656 4.04768h-1.254688l-1.057032-7.20156.206248-.240624h2.131256l.98828-4.95h-3.067968l-2.475 12.392184h-1.194536l2.689848-13.449216h4.50312c.28072.000008.492704.088816.635944.266408.143216.177616.186184.406784.128904.687496l-1.022656 5.104688c-.131784.6474-.63308.971104-1.503904.971096-.085944.000008-.211992-.0032-.378128-.00856-.160424-.01144-.277872-.0172-.352344-.0172.343744 2.142712.684632 4.291152 1.022656 6.445312m12.349216-12.392208h-2.079688l-2.475 12.392184h-1.194528l2.475-12.392184h-2.096872l.21484-1.057032h5.371096l-.214848 1.057032" style="line-height:125%;-inkscape-font-specification:'Agency FB Italic';text-align:start" font-style="italic" font-size="22" font-family="Agency FB" letter-spacing="0" word-spacing="0"/>
    <path fill="#747b81" d="M327.939 736.10675c0-2.84911 4.56063-5.16047 10.18753-5.16047 5.63582 0 10.19618 2.31136 10.19618 5.16047 0 2.85831-4.56036 5.16116-10.19618 5.16116-5.6269 0-10.18753-2.30285-10.18753-5.16116m18.83376 9.55137c0-2.99271 4.79357-5.42081 10.70736-5.42081 5.913 0 10.71576 2.4281 10.71576 5.42081 0 2.99248-4.80276 5.42085-10.71576 5.42085-5.91379 0-10.70736-2.42837-10.70736-5.42085m4.39022-11.88076c5.16129-.19707 9.2915-4.45288 9.2915-9.66815 0-5.33984-4.33647-9.67631-9.67641-9.67631-5.30475 0-9.61414 4.26465-9.677 9.56025.12563-.009.25115-.009.38542-.009 5.34011 0 9.67649 4.32728 9.67649 9.67632v.11674m18.82487 9.5604c5.02637-.1974 9.04053-4.33681 9.04053-9.41696 0-5.20574-4.21122-9.42582-9.41696-9.42582-5.16082 0-9.35434 4.15779-9.41663 9.30942.12525-.009.2505-.009.3761-.009 5.19689 0 9.41696 4.22007 9.41696 9.42615v.1164"/>
    <path fill="#d3d4d6" stroke="#d3d4d6" stroke-width=".8" d="M591.524216 865.032936l-3.95 7.912504c-.458336.791672-1.12084 2.112504-1.987496 3.962496l-1.512504 7.575h-1.737496l1.512496-7.575c.00832-.63332-.03752-1.299992-.137496-2-.158336-1.199984-.241672-1.854152-.25-1.962496l-.8-7.912504c-.000008-.00832.00832-.04584.02496-.112496h1.762496l.725 9.787496 4.625-9.787496h1.75c-.00832.05832-.01664.095848-.02496.112496m165.25928-104.131056H754.996l-1-8.037496-4.225 8.037496h-1.737504c.00832-.05832.01664-.091664.02496-.1l5.462504-9.912496c-.933344-6.33332-1.391672-9.516648-1.375-9.55h1.825l.862496 7.425 3.925-7.425h1.737504c-.00832.05832-.01664.095856-.02496.112496l-5.112504 9.337504c.974992 6.708336 1.449992 10.079168 1.425 10.112496m-93.738088 182.39688c-.083344.408336-.279176.741664-.587496 1-.308344.258328-.66668.387496-1.075.387496h-6.45l3.912496-19.562496h6.4c.40832.000016.716656.129184.925.387496.20832.258352.270824.591688.187504 1l-1.162504 5.812504c-.108344.51668-.429176.950008-.962496 1.3-.51668.275008-1.029176.550008-1.537504.825l1.287504.95c.374984.266672.50832.683344.4 1.25l-1.337504 6.65m.35-10.75l1.175-5.887504h-4.3l-1.412496 7.062504h2.562496l1.975-1.175m-2.062496 10.6l1.35-6.762504-1.537504-1.15h-2.587496l-1.575 7.912504h4.35m170.149024-123.955912h-1.725l.187496-4.35h-3.887496l-1.562504 4.35h-1.675l.01248-.05 7.4-19.562496h1.712496l-.462496 19.612496m-1.462504-5.887496l.412504-10.6-3.85 10.6h3.437496" style="line-height:125%;-inkscape-font-specification:'Agency FB Italic';text-align:start" font-style="italic" font-size="32" font-family="Agency FB" letter-spacing="0" word-spacing="0"/>
  </g>
</svg>
