<?xml version="1.0" encoding="UTF-8" standalone="no"?>
<svg
   xmlns:dc="http://purl.org/dc/elements/1.1/"
   xmlns:cc="http://creativecommons.org/ns#"
   xmlns:rdf="http://www.w3.org/1999/02/22-rdf-syntax-ns#"
   xmlns:svg="http://www.w3.org/2000/svg"
   xmlns="http://www.w3.org/2000/svg"
   xmlns:sodipodi="http://sodipodi.sourceforge.net/DTD/sodipodi-0.dtd"
   xmlns:inkscape="http://www.inkscape.org/namespaces/inkscape"
   version="1.1"
   id="svg2"
   viewBox="0 0 420 217.29999"
   height="217.29999"
   width="420"
   inkscape:version="0.91 r13725"
   sodipodi:docname="doom.svg">
  <sodipodi:namedview
     pagecolor="#ffffff"
     bordercolor="#666666"
     borderopacity="1"
     objecttolerance="10"
     gridtolerance="10"
     guidetolerance="10"
     inkscape:pageopacity="0"
     inkscape:pageshadow="2"
     inkscape:window-width="1920"
     inkscape:window-height="1026"
     id="namedview7"
     showgrid="false"
     fit-margin-top="0"
     fit-margin-left="0"
     fit-margin-right="0"
     fit-margin-bottom="0"
     inkscape:zoom="0.89903576"
     inkscape:cx="490.03515"
     inkscape:cy="280.44121"
     inkscape:window-x="0"
     inkscape:window-y="0"
     inkscape:window-maximized="1"
     inkscape:current-layer="svg2" />
  <defs
     id="defs4" />
  <metadata
     id="metadata7">
    <rdf:RDF>
      <cc:Work
         rdf:about="">
        <dc:format>image/svg+xml</dc:format>
        <dc:type
           rdf:resource="http://purl.org/dc/dcmitype/StillImage" />
        <dc:title></dc:title>
      </cc:Work>
    </rdf:RDF>
  </metadata>
  <g
     transform="matrix(0.25,0,0,0.25,-1.7832006,-141.43281)"
     id="layer1">
    <path
       id="path3347"
       d="m 1476.3012,1327.8121 -0.2917,-292.4969 -46.7662,163.4072 -46.7058,-162.6616 -0.2827,222.0343 -152.4945,-114.3724 11.559,-8.6664 -0.5292,-569.30683 144.9467,0.3774 43.4492,152.19623 43.5126,-152.40042 214.4342,0.69673 -70.3645,52.57665 -0.1246,814.42954 z M 78.328958,619.06163 7.1328025,565.73124 l 401.3006875,0.54398 45.93055,35.08717 0.0378,533.50351 12.16772,8.8133 -388.148567,291.252 z m 235.518822,416.21877 -0.15295,-307.89242 -10.75764,-8.78449 -83.44785,0.40375 -0.18291,387.17176 z m 152.39799,82.7814 -0.0717,-516.75483 47.07325,-35.27648 281.69722,-0.0156 46.98005,35.42167 0.17344,597.96244 -133.22444,100.1999 z m 223.12917,-399.76328 -71.04792,0.49268 -11.09868,8.52709 0.15885,308.10291 93.32018,69.9936 0.24947,-377.92826 z m 164.80854,481.66028 -0.34116,-598.79687 46.91876,-35.23879 282.06992,0.26967 47.2183,35.27898 -0.3246,515.55821 -241.33557,182.4526 z m 234.65122,-164.742 -0.03,-308.02638 -11.8726,-9.07298 -70.9365,0.23276 -11.40484,8.78228 0.70414,377.32652 z"
       style="fill:#800000;fill-opacity:1;stroke:none"
       inkscape:connector-curvature="0" />
  </g>
  <path
     style="fill:#d40000;fill-opacity:1;stroke:none;stroke-opacity:1"
     d="m 18.418761,114.17576 0,-101.203646 L 10.593636,7.1166115 2.7685114,1.2611093 51.305701,0.97125922 l 48.53719,-0.2898502 5.315139,3.90167038 5.31514,3.9016704 0.82766,67.3172162 c 0.47839,38.910424 1.26054,67.584744 1.85348,67.951204 0.8748,0.54066 -92.585211,71.62623 -94.170833,71.62623 -0.310594,0 -0.564716,-45.54164 -0.564716,-101.20364 z m 48.107096,11.4167 10.844952,-8.17699 0,-38.850826 c 0,-45.283306 1.44366,-41.153694 -14.386812,-41.153694 l -10.083849,0 0,49.006969 c 0,38.905481 0.286589,48.836361 1.390378,48.179251 0.764708,-0.45523 6.270607,-4.50736 12.235331,-9.00471 z"
     id="path3335"
     inkscape:connector-curvature="0" />
  <path
     style="fill:#d40000;fill-opacity:1;stroke:none;stroke-opacity:1"
     d="m 145.00386,160.07325 -29.66326,-21.9989 -0.043,-64.513558 -0.043,-64.5135631 5.75379,-4.1711355 5.75378,-4.17113549 34.98951,0 34.9895,0 5.94067,4.48524429 5.94066,4.4852441 -0.042,74.2101797 -0.042,74.210174 -15.70508,11.67918 c -8.63779,6.42355 -16.25885,11.81823 -16.93568,11.98817 -0.67682,0.16995 -14.57906,-9.59051 -30.89385,-21.6899 z m 29.13729,-72.569538 c 0,-46.110067 -0.0756,-47.830359 -2.15148,-48.941324 -3.02526,-1.619073 -19.32441,-1.476679 -20.98442,0.183326 -0.98924,0.989246 -1.32242,11.426749 -1.28711,40.320976 l 0.0477,38.98621 11.35346,8.54639 c 6.2444,4.70053 11.72885,8.57968 12.18768,8.62035 0.45882,0.0407 0.83423,-21.43149 0.83423,-47.715928 z"
     id="path3337"
     inkscape:connector-curvature="0" />
  <path
     style="fill:#d40000;fill-opacity:1;stroke:none;stroke-opacity:1"
     d="m 227.85783,169.97706 -15.80224,-11.88126 -0.0153,-74.524283 -0.0153,-74.5242881 5.75378,-4.1711355 5.75379,-4.17113549 35.14362,0 35.14361,0 5.75379,4.17113549 5.75379,4.1711355 0.0328,64.1539821 0.0327,64.153979 -29.53312,22.32756 c -16.24322,12.28017 -30.1331,22.29336 -30.8664,22.25156 -0.73331,-0.0418 -8.44429,-5.42256 -17.13553,-11.95725 z m 32.27185,-44.13804 10.73488,-7.78612 0.0235,-38.98621 c 0.0174,-28.86649 -0.323,-39.33268 -1.3113,-40.320976 -1.8027,-1.802702 -19.99843,-1.802702 -21.80113,0 -2.05908,2.059076 -1.91807,97.009716 0.14222,95.768926 0.81234,-0.48922 6.30768,-4.39325 12.21186,-8.67562 z"
     id="path3339"
     inkscape:connector-curvature="0" />
  <path
     style="fill:#550000;fill-opacity:1;stroke:none;stroke-opacity:1"
     d="m 384.68863,202.92698 -16.91845,-12.57439 -0.078,-36.706 c -0.0449,-21.14891 -0.48444,-35.99885 -1.03696,-35.03753 -0.52744,0.91764 -3.10628,9.30163 -5.73076,18.63107 -2.62448,9.32944 -5.05581,16.96041 -5.40295,16.95771 -0.34714,-0.002 -2.83581,-7.73152 -5.53037,-17.17515 -2.69456,-9.44362 -5.31471,-17.8254 -5.82256,-18.62616 -0.50784,-0.80076 -0.93101,10.93747 -0.94038,26.08496 l -0.017,27.54088 -18.24469,-13.6371 c -11.22234,-8.3882 -17.85826,-14.04381 -17.2407,-14.69379 0.5756,-0.6058 1.004,-31.33703 1.004,-72.021603 l 0,-70.96491909 17.74975,0 17.74974,0 2.20387,7.50804389 c 1.21213,4.1294242 3.54697,12.2631382 5.18854,18.0749202 1.64156,5.811783 3.25848,11.031661 3.59314,11.599729 0.33467,0.56807 3.00767,-7.380081 5.94,-17.662555 2.93233,-10.2824755 5.52666,-18.8905598 5.76518,-19.1290768 0.23852,-0.23851697 11.78764,-0.29894682 25.66472,-0.13428852 l 25.23106,0.29937862 -7.82043,5.8511243 -7.82043,5.8511244 -0.28393,101.269012 -0.28392,101.26899 -16.91845,-12.57438 z"
     id="path3341"
     inkscape:connector-curvature="0" />
  <path
     style="fill:#550000;fill-opacity:1;stroke:none;stroke-opacity:1"
     d="m 227.66748,169.24208 -15.70803,-11.65592 0,-73.956304 0,-73.9563025 6.07017,-4.4842978 6.07017,-4.48429779 34.70588,0 34.70589,0 5.94066,4.48524429 5.94066,4.4852441 0,63.6664197 0,63.666424 -20.72402,15.54911 c -28.99654,21.75596 -38.26403,28.34061 -39.88763,28.34061 -0.77315,0 -8.47434,-5.24516 -17.11375,-11.65593 z m 32.12099,-42.70453 10.56688,-7.6092 0.29246,-39.237009 c 0.20895,-28.031912 -0.0682,-39.671566 -0.97042,-40.7587 -1.64742,-1.985018 -19.94751,-2.141205 -21.90179,-0.186927 -0.9954,0.995403 -1.33476,13.108694 -1.33476,47.643636 0,25.46988 0.33369,46.64257 0.74153,47.05041 1.22348,1.22347 1.63455,0.9984 12.6061,-6.90221 z"
     id="path3343"
     inkscape:connector-curvature="0" />
  <path
     style="fill:#550000;fill-opacity:1;stroke:none;stroke-opacity:1"
     d="m 160.17307,170.54156 c -7.9176,-5.69605 -21.27801,-15.4682 -29.6898,-21.71592 l -15.29417,-11.35947 0,-63.896309 0,-63.8963075 6.07018,-4.4842978 6.07017,-4.48429779 34.29458,0 34.29458,0 6.35197,4.66298229 6.35196,4.6629818 0,73.77988 0,73.779888 -15.76377,11.65366 c -8.67007,6.40951 -16.33218,11.65366 -17.02691,11.65366 -0.69474,0 -7.74119,-4.6604 -15.65879,-10.35645 z m 13.96808,-82.854523 c 0,-35.544254 -0.33819,-47.944756 -1.33476,-48.941323 -1.8027,-1.802702 -19.99843,-1.802702 -21.80114,0 -0.98757,0.987578 -1.33476,11.516462 -1.33476,40.478586 l 0,39.14382 11.32304,8.46274 c 6.22766,4.6545 11.73356,8.46274 12.23533,8.46274 0.50176,0 0.91229,-21.42295 0.91229,-47.606563 z"
     id="path3345"
     inkscape:connector-curvature="0" />
  <path
     style="fill:#800000;fill-opacity:1;stroke:none;stroke-opacity:1"
     d="M 19.154381,191.74296 C 18.753003,179.35469 18.423288,133.87841 18.421682,90.684572 L 18.418761,12.150311 11.466868,7.2618618 4.5149757,2.3734121 51.662423,1.5062817 98.809869,0.63915122 l 5.317401,3.64788748 5.3174,3.6478874 0.61023,10.0107249 c 0.33563,5.505899 0.87732,35.371999 1.20376,66.369111 0.32644,30.997118 0.86396,57.063128 1.1945,57.924478 0.40417,1.05325 -7.70026,7.9559 -24.748738,21.07883 -25.534745,19.65517 -67.018882,50.94903 -67.539643,50.94903 -0.154341,0 -0.60902,-10.13586 -1.010398,-22.52414 z m 52.88961,-69.80503 5.240059,-3.88503 0.04338,-37.848873 c 0.03725,-32.503932 -0.201144,-38.197982 -1.688147,-40.320977 -1.58145,-2.257836 -2.641924,-2.4721 -12.235331,-2.4721 l -10.503804,0 0,48.199788 c 0,26.509892 0.297722,48.497512 0.661605,48.861392 0.363882,0.36389 3.492234,-1.43332 6.951893,-3.99378 3.459657,-2.56047 8.648313,-6.40366 11.530345,-8.54042 z"
     id="path3348"
     inkscape:connector-curvature="0" />
  <path
     style="fill:#800000;fill-opacity:1;stroke:none;stroke-opacity:1"
     d="m 171.58769,178.05616 c -2.26619,-1.53993 -4.12035,-2.43588 -4.12035,-1.99101 0,0.44486 -0.73489,-0.16277 -1.63308,-1.35028 -0.8982,-1.18752 -1.649,-1.67235 -1.66846,-1.0774 -0.0194,0.59493 -0.82042,-0.0391 -1.77993,-1.40899 -0.95951,-1.36989 -2.1584,-2.23495 -2.66421,-1.92234 -0.5058,0.3126 -1.21882,-0.21128 -1.58449,-1.1642 -0.36566,-0.95291 -1.16892,-1.42102 -1.78501,-1.04027 -0.61608,0.38076 -1.12015,0.20365 -1.12015,-0.39359 0,-0.59723 -9.00966,-7.70326 -20.02145,-15.79118 l -20.02146,-14.70531 0,-63.750672 0,-63.7506661 5.00537,-3.44378 c 2.75295,-1.8940789 5.00536,-3.8937991 5.00536,-4.4438226 0,-1.56213023 69.98847,-1.46195651 71.87398,0.1028724 0.8459,0.7020381 1.538,0.9094254 1.538,0.4608608 0,-0.4485648 0.98443,0.3660856 2.18761,1.8103342 1.20318,1.4442486 2.20425,2.139132 2.2246,1.5441853 0.0204,-0.5949469 0.82206,0.039097 1.78157,1.4089871 0.9595,1.3698897 2.21084,2.2025264 2.78075,1.8503038 0.63612,-0.3931443 1.0362,28.1224131 1.0362,73.8552901 l 0,74.495687 -12.51341,9.11544 c -6.88237,5.01348 -13.13907,9.90664 -13.90378,10.8737 -0.76471,0.96706 -1.39038,1.40081 -1.39038,0.9639 0,-0.43691 -1.14906,-0.0415 -2.55346,0.8787 -2.35284,1.54164 -2.87721,1.45311 -6.67382,-1.12675 z m 2.55346,-90.174201 c 0,-29.697696 -0.41077,-46.935582 -1.15143,-48.319527 -0.998,-1.864763 -2.39561,-2.151482 -10.48743,-2.151482 -7.00419,0 -9.77255,0.436565 -11.08389,1.747905 -1.52129,1.521289 -1.74791,6.711182 -1.74791,40.030186 0,34.616669 0.18343,38.496509 1.91566,40.519599 1.0536,1.23053 2.50166,2.23732 3.2179,2.23732 0.71624,0 1.59036,0.75081 1.9425,1.66846 0.35213,0.91765 1.40676,1.66845 2.34361,1.66845 0.93685,0 1.70336,0.51624 1.70336,1.14721 0,0.63097 0.87594,1.48166 1.94653,1.89045 1.07059,0.40877 2.44707,1.15314 3.05883,1.65416 0.61177,0.50101 2.30312,1.89234 3.75856,3.09183 1.45544,1.1995 3.08218,1.91148 3.61498,1.5822 0.53281,-0.3293 0.96873,-21.37434 0.96873,-46.766761 z"
     id="path3350"
     inkscape:connector-curvature="0" />
  <path
     style="fill:#800000;fill-opacity:1;stroke:none;stroke-opacity:1"
     d="m 234.45673,173.78649 c -5.49254,-3.88758 -12.80137,-9.19364 -16.24186,-11.79122 l -6.25542,-4.72289 0,-73.746543 0,-73.7465417 6.39571,-4.5371687 6.39572,-4.53716869 34.25106,0 34.25106,0 6.06994,4.58284919 6.06994,4.5828493 -0.0429,63.5456966 -0.0429,63.545697 -17.75392,13.19147 c -9.76466,7.2553 -17.75393,13.66668 -17.75393,14.24751 0,0.58082 -0.41471,0.79972 -0.92159,0.48646 -0.50687,-0.31327 -2.50901,0.88032 -4.44921,2.65241 -1.94019,1.77209 -3.54427,2.8748 -3.56462,2.45046 -0.0204,-0.42434 -1.02143,0.41013 -2.22461,1.85437 -1.20318,1.44426 -2.20425,2.19507 -2.2246,1.66846 -0.0204,-0.5266 -1.02143,0.22421 -2.22461,1.66845 -1.20318,1.44426 -2.20352,2.19507 -2.22298,1.66846 -0.0195,-0.5266 -0.77026,0.0141 -1.66845,1.20167 -0.89819,1.18752 -1.63308,1.79558 -1.63308,1.35125 0,-0.44434 -0.95001,-0.29945 -2.11114,0.32197 -1.7374,0.92982 -3.87907,-0.12149 -12.09757,-5.9385 z m 18.24856,-41.92052 c 2.06045,-1.27343 3.74627,-2.77504 3.74627,-3.33691 0,-0.56187 0.76651,-1.02158 1.70336,-1.02158 0.93685,0 1.99038,-0.74794 2.34116,-1.66207 0.35079,-0.91414 1.08942,-1.38295 1.6414,-1.0418 0.55199,0.34115 1.30389,-0.16227 1.67091,-1.11869 0.36701,-0.95643 1.30698,-1.73896 2.08882,-1.73896 0.78184,0 2.2299,-1.23373 3.21791,-2.74162 1.56456,-2.38783 1.79638,-7.61675 1.79638,-40.519601 0,-32.860547 -0.22752,-38.005498 -1.74791,-39.525884 -2.48126,-2.481261 -18.49359,-2.481261 -20.97485,0 -1.53252,1.532522 -1.7479,7.403314 -1.7479,47.643637 0,25.242648 0.33369,46.229428 0.74153,46.637268 1.07208,1.07208 1.38701,0.98235 5.52292,-1.57379 z"
     id="path3352"
     inkscape:connector-curvature="0" />
  <path
     style="fill:#800000;fill-opacity:1;stroke:none;stroke-opacity:1"
     d="m 384.11691,202.40286 -16.37785,-12.05027 -0.0286,-35.93742 c -0.0157,-19.76557 -0.44631,-35.67925 -0.95683,-35.36373 -0.51053,0.31552 -3.10789,8.10879 -5.77193,17.31839 -2.66404,9.20959 -5.20966,16.36389 -5.65695,15.89843 -0.44728,-0.46545 -2.90688,-7.85378 -5.46577,-16.41851 -2.55889,-8.56473 -5.10146,-16.04775 -5.65016,-16.62893 -0.5903,-0.62525 -0.99763,9.7067 -0.99763,25.30489 0,14.49887 -0.2731,26.36158 -0.60689,26.36158 -0.94433,0 -27.35182,-19.90849 -31.09374,-23.44143 l -3.33691,-3.15054 0.29413,-71.795184 0.29412,-71.79517809 17.62888,0 17.62887,0 4.1267,14.18186109 c 2.26968,7.800023 4.66969,16.058871 5.33334,18.352996 0.66366,2.294124 1.53922,4.171135 1.94568,4.171135 0.40647,0 2.91155,-7.382909 5.56684,-16.406466 2.6553,-9.023556 5.26433,-17.2824047 5.79786,-18.3529962 0.85616,-1.71799927 2.83929,-1.94652989 16.89148,-1.94652989 8.75679,0 19.73085,0.32201349 24.3868,0.71558529 l 8.46537,0.7155855 -7.18524,5.4393677 -7.18524,5.4393676 -0.14738,66.422805 c -0.0811,36.532551 -0.45646,81.856151 -0.83423,100.719141 l -0.68685,34.29633 -16.37786,-12.05028 z"
     id="path3354"
     inkscape:connector-curvature="0" />
</svg>
